<?xml version="1.0" standalone="no"?>
<!DOCTYPE svg PUBLIC "-//W3C//DTD SVG 20010904//EN"
 "http://www.w3.org/TR/2001/REC-SVG-20010904/DTD/svg10.dtd">
<svg version="1.0" xmlns="http://www.w3.org/2000/svg"
 width="126.000000pt" height="28.000000pt" viewBox="0 0 126.000000 28.000000"
 preserveAspectRatio="xMidYMid meet">

<g transform="translate(0.000000,28.000000) scale(0.100000,-0.100000)"
fill="#000000" stroke="none">
<path d="M90 240 c0 -5 5 -10 11 -10 5 0 7 5 4 10 -3 6 -8 10 -11 10 -2 0 -4
-4 -4 -10z"/>
<path d="M141 234 c0 -11 3 -14 6 -6 3 7 2 16 -1 19 -3 4 -6 -2 -5 -13z"/>
<path d="M115 220 c-3 -5 -1 -10 4 -10 6 0 11 5 11 10 0 6 -2 10 -4 10 -3 0
-8 -4 -11 -10z"/>
<path d="M55 210 c3 -5 8 -10 11 -10 2 0 4 5 4 10 0 6 -5 10 -11 10 -5 0 -7
-4 -4 -10z"/>
<path d="M642 211 c-21 -13 -10 -46 16 -49 12 -2 22 -8 22 -14 0 -6 -11 -8
-25 -6 -27 6 -34 -6 -10 -16 23 -8 45 4 45 25 0 12 -9 21 -25 25 -14 3 -22 10
-19 15 3 6 14 7 25 4 23 -8 26 10 3 19 -19 7 -16 8 -32 -3z"/>
<path d="M738 213 c-25 -4 -28 -8 -28 -44 0 -39 0 -39 38 -38 30 2 32 3 10 6
-29 4 -39 23 -13 23 8 0 15 5 15 10 0 6 -7 10 -15 10 -8 0 -15 5 -15 10 0 6 9
10 20 10 11 0 20 5 20 10 0 6 -1 9 -2 9 -2 -1 -15 -4 -30 -6z"/>
<path d="M807 202 c-10 -10 -17 -26 -17 -35 0 -22 43 -49 64 -41 26 10 19 23
-11 21 -24 -2 -28 2 -28 23 0 21 4 25 28 23 29 -2 37 11 11 21 -24 9 -29 8
-47 -12z"/>
<path d="M894 180 c1 -39 4 -45 25 -48 27 -4 41 12 41 50 0 42 -18 43 -22 1
-4 -53 -31 -51 -39 2 l-7 40 2 -45z"/>
<path d="M977 213 c-11 -10 -8 -83 3 -83 6 0 10 7 10 15 0 8 4 15 9 15 5 0 14
-7 21 -15 7 -8 17 -15 22 -15 6 0 5 7 -2 15 -7 8 -9 22 -6 31 11 30 -35 60
-57 37z m43 -23 c0 -5 -7 -10 -15 -10 -8 0 -15 5 -15 10 0 6 7 10 15 10 8 0
15 -4 15 -10z"/>
<path d="M1063 175 c0 -27 2 -38 4 -22 2 15 2 37 0 50 -2 12 -4 0 -4 -28z"/>
<path d="M1090 211 c0 -5 4 -11 9 -13 6 -1 12 -16 15 -32 8 -43 16 -44 16 -3
0 26 4 37 15 37 8 0 15 5 15 10 0 6 -16 10 -35 10 -19 0 -35 -4 -35 -9z"/>
<path d="M1170 214 c0 -5 7 -18 15 -28 8 -11 15 -29 16 -40 1 -16 3 -14 9 7 5
16 14 35 21 43 6 8 9 18 5 22 -4 4 -12 -1 -18 -11 -9 -18 -11 -18 -29 -1 -10
9 -19 13 -19 8z"/>
<path d="M260 165 c0 -25 5 -45 10 -45 6 0 10 12 10 28 l0 27 25 -30 24 -30
-1 50 c0 41 -2 45 -7 20 l-7 -30 -18 28 c-26 39 -36 34 -36 -18z"/>
<path d="M362 171 c-16 -51 -15 -53 7 -39 15 9 23 9 35 -1 9 -8 16 -9 16 -3 0
18 -30 82 -39 82 -4 0 -13 -17 -19 -39z"/>
<path d="M431 193 c1 -10 5 -31 9 -48 l8 -30 1 30 2 30 13 -30 13 -30 14 29
14 30 6 -30 c6 -24 7 -21 8 19 1 52 -13 62 -31 20 l-11 -28 -10 28 c-12 30
-38 37 -36 10z"/>
<path d="M541 179 c-2 -73 61 -78 67 -5 2 21 -1 36 -7 36 -6 0 -11 -16 -11
-36 0 -49 -32 -44 -41 6 l-6 35 -2 -36z"/>
<path d="M78 153 c7 -3 16 -2 19 1 4 3 -2 6 -13 5 -11 0 -14 -3 -6 -6z"/>
<path d="M108 80 c3 -38 8 -50 20 -50 14 0 17 10 17 49 0 34 -3 47 -11 40 -6
-5 -14 -5 -20 1 -5 5 -8 -10 -6 -40z"/>
<path d="M846 82 c-3 -5 -1 -14 5 -22 6 -10 9 -11 9 -2 0 6 5 12 10 12 6 0 9
-5 8 -12 -2 -8 13 -11 47 -9 56 3 76 14 57 33 -9 9 -12 8 -13 -7 0 -11 -3 -14
-6 -7 -2 6 -9 12 -14 12 -6 0 -8 -4 -5 -8 3 -5 -1 -9 -9 -9 -8 0 -12 4 -9 9 3
4 0 8 -5 8 -6 0 -11 -5 -11 -11 0 -8 -4 -8 -12 -2 -20 15 -47 23 -52 15z"/>
<path d="M504 71 c-13 -13 5 -18 83 -19 58 0 90 3 96 11 7 9 10 9 14 0 3 -8
24 -13 54 -13 28 0 48 4 45 9 -4 5 0 11 6 14 7 2 -6 4 -29 4 -25 0 -43 -5 -43
-11 0 -8 -3 -8 -8 -1 -10 15 -72 15 -72 1 0 -6 -5 -4 -10 4 -9 13 -11 13 -20
0 -5 -8 -10 -10 -10 -5 0 10 -97 15 -106 6z"/>
<path d="M816 65 c-3 -8 -1 -15 4 -15 13 0 22 18 11 24 -5 3 -11 -1 -15 -9z"/>
<path d="M996 65 c-3 -8 -1 -15 4 -15 6 0 10 7 10 15 0 8 -2 15 -4 15 -2 0 -6
-7 -10 -15z"/>
</g>
</svg>
